{
    "asset": {
        "version": "2.0",
        "generator": "Open Asset Import Library (assimp v3.1.128981410)"
    },
    "accessors": [
        {
            "bufferView": 0,
            "byteOffset": 0,
            "componentType": 5126,
            "count": 20026,
            "type": "VEC3",
            "max": [
                2.551225185394287,
                0.6255490779876709,
                1.0857900381088257
            ],
            "min": [
                -2.551225185394287,
                -0.13882699608802796,
                -1.0445491075515748
            ]
        },
        {
            "bufferView": 1,
            "byteOffset": 0,
            "componentType": 5126,
            "count": 20026,
            "type": "VEC3",
            "max": [
                0.9999998211860657,
                0.9999999403953552,
                0.9999999403953552
            ],
            "min": [
                -0.9999998211860657,
                -0.9999998211860657,
                -0.9999999403953552
            ]
        },
        {
            "bufferView": 2,
            "byteOffset": 0,
            "componentType": 5126,
            "count": 20026,
            "type": "VEC2",
            "max": [
                0.21084100008010865,
                0.9995070099830627
            ],
            "min": [
                0.0005130000063218176,
                0.0005069971084594727
            ]
        },
        {
            "bufferView": 3,
            "byteOffset": 0,
            "componentType": 5123,
            "count": 109056,
            "type": "SCALAR",
            "max": [
                20025.0
            ],
            "min": [
                0.0
            ]
        },
        {
            "bufferView": 4,
            "byteOffset": 0,
            "componentType": 5126,
            "count": 5872,
            "type": "VEC3",
            "max": [
                2.5051512718200685,
                0.4000450372695923,
                1.0660420656204224
            ],
            "min": [
                -2.5051512718200685,
                -0.20600304007530213,
                -1.0293151140213013
            ]
        },
        {
            "bufferView": 5,
            "byteOffset": 0,
            "componentType": 5126,
            "count": 5872,
            "type": "VEC3",
            "max": [
                0.9999999403953552,
                0.9999999403953552,
                0.9999999403953552
            ],
            "min": [
                -0.9999999403953552,
                -0.9999999403953552,
                -0.9999999403953552
            ]
        },
        {
            "bufferView": 6,
            "byteOffset": 0,
            "componentType": 5126,
            "count": 5872,
            "type": "VEC2",
            "max": [
                0.6834530234336853,
                0.9994570016860962
            ],
            "min": [
                0.000534999999217689,
                0.0005499720573425293
            ]
        },
        {
            "bufferView": 7,
            "byteOffset": 0,
            "componentType": 5123,
            "count": 28464,
            "type": "SCALAR",
            "max": [
                5871.0
            ],
            "min": [
                0.0
            ]
        },
        {
            "bufferView": 8,
            "byteOffset": 0,
            "componentType": 5126,
            "count": 4967,
            "type": "VEC3",
            "max": [
                2.612842082977295,
                0.5535280704498291,
                1.092581033706665
            ],
            "min": [
                -2.612842082977295,
                -0.06622803211212158,
                -1.05134117603302
            ]
        },
        {
            "bufferView": 9,
            "byteOffset": 0,
            "componentType": 5126,
            "count": 4967,
            "type": "VEC3",
            "max": [
                0.9999416470527649,
                0.9999999403953552,
                0.9999999403953552
            ],
            "min": [
                -0.9999415278434753,
                -0.9999999403953552,
                -0.9999999403953552
            ]
        },
        {
            "bufferView": 10,
            "byteOffset": 0,
            "componentType": 5126,
            "count": 4967,
            "type": "VEC2",
            "max": [
                0.48518699407577517,
                0.9602630138397217
            ],
            "min": [
                0.0005389999714680016,
                0.0005480051040649414
            ]
        },
        {
            "bufferView": 11,
            "byteOffset": 0,
            "componentType": 5123,
            "count": 25392,
            "type": "SCALAR",
            "max": [
                4966.0
            ],
            "min": [
                0.0
            ]
        },
        {
            "bufferView": 12,
            "byteOffset": 0,
            "componentType": 5126,
            "count": 3786,
            "type": "VEC3",
            "max": [
                4.318069934844971,
                1.0365850925445557,
                1.0994551181793213
            ],
            "min": [
                -4.318069934844971,
                0.5210239887237549,
                -1.0994551181793213
            ]
        },
        {
            "bufferView": 13,
            "byteOffset": 0,
            "componentType": 5126,
            "count": 3786,
            "type": "VEC3",
            "max": [
                0.9984379410743713,
                0.9999999403953552,
                0.9999999403953552
            ],
            "min": [
                -0.9984379410743713,
                -0.9999999403953552,
                -0.9999999403953552
            ]
        },
        {
            "bufferView": 14,
            "byteOffset": 0,
            "componentType": 5126,
            "count": 3786,
            "type": "VEC2",
            "max": [
                0.709610641002655,
                0.9849057197570801
            ],
            "min": [
                0.015094321221113205,
                0.015094339847564698
            ]
        },
        {
            "bufferView": 15,
            "byteOffset": 0,
            "componentType": 5123,
            "count": 19008,
            "type": "SCALAR",
            "max": [
                3785.0
            ],
            "min": [
                0.0
            ]
        }
    ],
    "buffers": [
        {
            "byteLength": 1472672,
            "uri": "skateboard.bin"
        }
    ],
    "bufferViews": [
        {
            "buffer": 0,
            "byteOffset": 0,
            "byteLength": 240312,
            "target": 34962
        },
        {
            "buffer": 0,
            "byteOffset": 240312,
            "byteLength": 240312,
            "target": 34962
        },
        {
            "buffer": 0,
            "byteOffset": 480624,
            "byteLength": 160208,
            "target": 34962
        },
        {
            "buffer": 0,
            "byteOffset": 640832,
            "byteLength": 218112,
            "target": 34963
        },
        {
            "buffer": 0,
            "byteOffset": 858944,
            "byteLength": 70464,
            "target": 34962
        },
        {
            "buffer": 0,
            "byteOffset": 929408,
            "byteLength": 70464,
            "target": 34962
        },
        {
            "buffer": 0,
            "byteOffset": 999872,
            "byteLength": 46976,
            "target": 34962
        },
        {
            "buffer": 0,
            "byteOffset": 1046848,
            "byteLength": 56928,
            "target": 34963
        },
        {
            "buffer": 0,
            "byteOffset": 1103776,
            "byteLength": 59604,
            "target": 34962
        },
        {
            "buffer": 0,
            "byteOffset": 1163380,
            "byteLength": 59604,
            "target": 34962
        },
        {
            "buffer": 0,
            "byteOffset": 1222984,
            "byteLength": 39736,
            "target": 34962
        },
        {
            "buffer": 0,
            "byteOffset": 1262720,
            "byteLength": 50784,
            "target": 34963
        },
        {
            "buffer": 0,
            "byteOffset": 1313504,
            "byteLength": 45432,
            "target": 34962
        },
        {
            "buffer": 0,
            "byteOffset": 1358936,
            "byteLength": 45432,
            "target": 34962
        },
        {
            "buffer": 0,
            "byteOffset": 1404368,
            "byteLength": 30288,
            "target": 34962
        },
        {
            "buffer": 0,
            "byteOffset": 1434656,
            "byteLength": 38016,
            "target": 34963
        }
    ],
    "materials": [
        {
            "name": "Hardware",
            "pbrMetallicRoughness": {
                "baseColorFactor": [
                    0.800000011920929,
                    0.800000011920929,
                    0.800000011920929,
                    1.0
                ],
                "metallicFactor": 0.0
            }
        },
        {
            "name": "Wheels",
            "pbrMetallicRoughness": {
                "baseColorFactor": [
                    0.800000011920929,
                    0.800000011920929,
                    0.800000011920929,
                    1.0
                ],
                "metallicFactor": 0.0
            }
        },
        {
            "name": "Trucks",
            "pbrMetallicRoughness": {
                "baseColorFactor": [
                    0.800000011920929,
                    0.800000011920929,
                    0.800000011920929,
                    1.0
                ],
                "metallicFactor": 0.0
            }
        },
        {
            "name": "Board",
            "pbrMetallicRoughness": {
                "baseColorFactor": [
                    0.800000011920929,
                    0.800000011920929,
                    0.800000011920929,
                    1.0
                ],
                "metallicFactor": 0.0
            }
        }
    ],
    "meshes": [
        {
            "name": "Hardware_high",
            "primitives": [
                {
                    "mode": 4,
                    "material": 0,
                    "indices": 3,
                    "attributes": {
                        "POSITION": 0,
                        "NORMAL": 1,
                        "TEXCOORD_0": 2
                    }
                }
            ]
        },
        {
            "name": "Wheels_high",
            "primitives": [
                {
                    "mode": 4,
                    "material": 1,
                    "indices": 7,
                    "attributes": {
                        "POSITION": 4,
                        "NORMAL": 5,
                        "TEXCOORD_0": 6
                    }
                }
            ]
        },
        {
            "name": "Trucks_high",
            "primitives": [
                {
                    "mode": 4,
                    "material": 2,
                    "indices": 11,
                    "attributes": {
                        "POSITION": 8,
                        "NORMAL": 9,
                        "TEXCOORD_0": 10
                    }
                }
            ]
        },
        {
            "name": "Board_high",
            "primitives": [
                {
                    "mode": 4,
                    "material": 3,
                    "indices": 15,
                    "attributes": {
                        "POSITION": 12,
                        "NORMAL": 13,
                        "TEXCOORD_0": 14
                    }
                }
            ]
        }
    ],
    "nodes": [
        {
            "name": "RootNode",
            "children": [
                1,
                2,
                3,
                4
            ]
        },
        {
            "name": "Hardware_high",
            "matrix": [
                100.0,
                0.0,
                0.0,
                0.0,
                0.0,
                100.0,
                0.000016292067812173629,
                0.0,
                0.0,
                -0.000016292067812173629,
                100.0,
                0.0,
                0.0,
                0.0,
                0.0,
                1.0
            ],
            "mesh": 0
        },
        {
            "name": "Wheels_high",
            "matrix": [
                100.0,
                0.0,
                0.0,
                0.0,
                0.0,
                100.0,
                0.000016292067812173629,
                0.0,
                0.0,
                -0.000016292067812173629,
                100.0,
                0.0,
                0.0,
                0.0,
                0.0,
                1.0
            ],
            "mesh": 1
        },
        {
            "name": "Trucks_high",
            "matrix": [
                100.0,
                0.0,
                0.0,
                0.0,
                0.0,
                100.0,
                0.000016292067812173629,
                0.0,
                0.0,
                -0.000016292067812173629,
                100.0,
                0.0,
                0.0,
                0.0,
                0.0,
                1.0
            ],
            "mesh": 2
        },
        {
            "name": "Board_high",
            "matrix": [
                100.0,
                0.0,
                0.0,
                0.0,
                0.0,
                100.0,
                0.000016292067812173629,
                0.0,
                0.0,
                -0.000016292067812173629,
                100.0,
                0.0,
                0.0,
                0.0,
                0.0,
                1.0
            ],
            "mesh": 3
        }
    ],
    "scenes": [
        {
            "nodes": [
                0
            ]
        }
    ],
    "scene": 0
}